<?xml version="1.0" encoding="UTF-8"?>
<svg id="Capa_2" data-name="Capa 2" xmlns="http://www.w3.org/2000/svg" viewBox="0 0 309.39 414.08">
  <g id="Capa_1-2" data-name="Capa 1">
    <path d="m200.59,229.34c22.17-13.11,56.08-17.65,108.8-22.3-52.9-4.36-86.78-8.75-108.87-22.11,8.54-22.57,29.72-48.41,63.55-87.26-38.51,33.53-64.24,54.64-86.66,63.32-16.06-28.46-19.13-76.56-22.71-160.99-3.9,84.08-7.16,132.31-22.91,160.91-22.38-8.73-48.07-29.81-86.46-63.24,33.94,38.97,55.15,64.86,63.64,87.47-22.01,13.62-55.85,17.86-108.96,21.9,52.64,4.77,86.57,9.36,108.77,22.39-8.61,22.5-29.75,48.29-63.45,86.98,38.68-33.68,64.46-54.82,86.96-63.44,16.48,28.27,19.25,76.19,22.41,161.11,3.28-84.78,6.13-132.76,22.48-161.08,22.48,8.63,48.25,29.76,86.89,63.41-33.74-38.74-54.89-64.55-63.48-87.07Z"/>
  </g>
</svg>