<?xml version="1.0" encoding="UTF-8"?>
<svg id="Capa_2" data-name="Capa 2" xmlns="http://www.w3.org/2000/svg" viewBox="0 0 877.54 110.05">
  <g id="Capa_1-2" data-name="Capa 1">
    <g>
      <g>
        <path d="m232.31,47.83c-2.26-4.94-5.54-8.74-9.85-11.38-4.31-2.64-9.62-3.97-15.94-3.97s-11.13,1.25-15.34,3.75c-3.63,2.15-6.51,4.94-8.72,8.3V0h-22.55v108.27h22.55v-39.51c0-3.72.7-6.9,2.11-9.55,1.4-2.64,3.33-4.68,5.79-6.1,2.46-1.42,5.19-2.13,8.19-2.13,5.11,0,8.85,1.49,11.21,4.48,2.35,2.99,3.53,7.17,3.53,12.56v40.24h22.41v-42.3c0-7.15-1.13-13.19-3.38-18.14Z"/>
        <path d="m135.77,108.27c-5.41,0-10.22-.88-14.43-2.63-4.21-1.75-7.47-4.64-9.77-8.65-2.31-4.01-3.46-9.47-3.46-16.39v-29.32h-12.93v-18.8h12.93V11.13h22.55v21.35h19.4v18.8h-19.4v29.62c0,3.01.68,5.14,2.03,6.39,1.35,1.26,3.68,1.88,6.99,1.88h10.38v19.1h-14.29Z"/>
        <path d="m284.33,110.05c-10.18.1-20.42-3.84-27.73-10.95-11.12-10.83-14.76-28.16-8.8-42.49,4.11-9.88,12.36-18.05,22.43-21.78,12.46-4.61,27.26-2.21,37.64,6.09,10.37,8.3,15.96,22.22,14.19,35.39-20.38,0-40.76,0-61.14-.01,0-3.92,0-7.84,0-11.77,12.86,0,25.71,0,38.57.01-.06-3.82-2.04-7.51-5.01-9.9-2.98-2.4-6.87-3.53-10.69-3.41-5.46.17-10.86,3.01-13.75,7.65-2.18,3.48-2.87,7.69-3.08,11.79-.21,4.11.04,8.36,1.76,12.1,2.42,5.27,7.82,9.06,13.6,9.53,5.78.47,11.73-2.38,14.97-7.2,7.55-.01,15.09-.02,22.64-.03-4.54,11.97-15.38,21.34-27.88,24.1-2.54.56-5.13.85-7.72.87Z"/>
        <path d="m567.31,110.05c-10.18.1-20.42-3.84-27.73-10.95-11.12-10.83-14.76-28.16-8.8-42.49,4.11-9.88,12.36-18.05,22.43-21.78,12.46-4.61,27.26-2.21,37.64,6.09,10.37,8.3,15.96,22.22,14.19,35.39-20.38,0-40.76,0-61.14-.01,0-3.92,0-7.84,0-11.77,12.86,0,25.71,0,38.57.01-.06-3.82-2.04-7.51-5.01-9.9-2.98-2.4-6.87-3.53-10.69-3.41-5.46.17-10.86,3.01-13.75,7.65-2.18,3.48-2.87,7.69-3.08,11.79-.21,4.11.04,8.36,1.76,12.1,2.42,5.27,7.82,9.06,13.6,9.53,5.78.47,11.73-2.38,14.97-7.2,7.55-.01,15.09-.02,22.64-.03-4.54,11.97-15.38,21.34-27.88,24.1-2.54.56-5.13.85-7.72.87Z"/>
        <path d="m808.66,110.05c-10.18.1-20.42-3.84-27.73-10.95-11.12-10.83-14.76-28.16-8.8-42.49,4.11-9.88,12.36-18.05,22.43-21.78,12.46-4.61,27.26-2.21,37.64,6.09,10.37,8.3,15.96,22.22,14.19,35.39-20.38,0-40.76,0-61.14-.01,0-3.92,0-7.84,0-11.77,12.86,0,25.71,0,38.57.01-.06-3.82-2.04-7.51-5.01-9.9-2.98-2.4-6.87-3.53-10.69-3.41-5.46.17-10.86,3.01-13.75,7.65-2.18,3.48-2.87,7.69-3.08,11.79-.21,4.11.04,8.36,1.76,12.1,2.42,5.27,7.82,9.06,13.6,9.53,5.78.47,11.73-2.38,14.97-7.2,7.55-.01,15.09-.02,22.64-.03-4.54,11.97-15.38,21.34-27.88,24.1-2.54.56-5.13.85-7.72.87Z"/>
        <path d="m348.39,108.27l-27.52-75.79h23.76l17.59,48.8,17.59-48.8h23.46l-27.37,75.79h-27.52Z"/>
        <rect x="408.09" y="32.48" width="22.55" height="75.79"/>
        <circle cx="419.37" cy="11.5" r="11.28"/>
        <circle cx="660.86" cy="11.5" r="11.28"/>
        <circle cx="866.27" cy="96.31" r="11.28"/>
        <path d="m614.55,108.27V0h22.55v108.27h-22.55Z"/>
        <rect x="649.43" y="32.48" width="22.56" height="75.79"/>
        <g>
          <path d="m684.28,108.48V32.55h22.55v75.93h-22.55Z"/>
          <path d="m684.28,108.48V34.45h19.7l1.8,11.9c2.3-4.11,5.56-7.42,9.77-9.91,4.21-2.5,9.32-3.75,15.34-3.75,6.32,0,11.63,1.32,15.94,3.97,4.31,2.64,7.59,6.44,9.85,11.38,2.26,4.95,3.38,10.99,3.38,18.14v42.3h-22.41v-40.24c0-5.39-1.18-9.57-3.53-12.56-2.36-2.99-6.09-4.48-11.21-4.48-3.01,0-5.74.71-8.19,2.13-2.46,1.42-4.39,3.45-5.79,6.1-1.41,2.64-2.11,5.83-2.11,9.55v39.51h-22.55Z"/>
        </g>
        <g>
          <path d="m442.98,108.34V32.41h22.55v75.93h-22.55Z"/>
          <path d="m442.98,108.34V34.31h19.7l1.8,11.9c2.3-4.11,5.56-7.42,9.77-9.91,4.21-2.5,9.32-3.75,15.34-3.75,6.32,0,11.63,1.32,15.94,3.97,4.31,2.64,7.59,6.44,9.85,11.38,2.26,4.95,3.38,10.99,3.38,18.14v42.3h-22.41v-40.24c0-5.39-1.18-9.57-3.53-12.56-2.36-2.99-6.09-4.48-11.21-4.48-3.01,0-5.74.71-8.19,2.13-2.46,1.42-4.39,3.45-5.79,6.1-1.41,2.64-2.11,5.83-2.11,9.55v39.51h-22.55Z"/>
        </g>
      </g>
      <g>
        <path d="m77.39,55.03c-35.66,3.15-36.93,6.09-38.69,51.79-1.7-45.63-2.95-48.55-38.69-51.79,35.19-2.68,36.55-5.7,38.69-51.79,1.95,45.9,3.29,48.87,38.69,51.79Z"/>
        <path d="m66.05,27.67c-22.64,26-22.64,28.72,0,54.71-26-22.64-28.72-22.64-54.71,0,22.64-26,22.64-28.72,0-54.71,26,22.64,28.72,22.64,54.71,0Z"/>
      </g>
    </g>
  </g>
</svg>